<?xml version="1.0" encoding="UTF-8"?>
<svg xmlns="http://www.w3.org/2000/svg" version="1.1" viewBox="0 0 1699.5 255.7">
  <defs>
    <style>
      .cls-1 {
        fill: #f6b619;
      }

      .cls-1, .cls-2, .cls-3 {
        fill-rule: evenodd;
      }

      .cls-2, .cls-4, .cls-5 {
        fill: #194172;
      }

      .cls-6, .cls-5 {
        isolation: isolate;
      }

      .cls-3 {
        fill: #b61f24;
      }

      .cls-5 {
        font-family: ArialMT, Arial;
        font-size: 79px;
      }
    </style>
  </defs>
  <!-- Generator: Adobe Illustrator 28.6.0, SVG Export Plug-In . SVG Version: 1.2.0 Build 709)  -->
  <g>
    <g id="Layer_1">
      <g>
        <polygon class="cls-2" points="0 239.5 46.6 239.5 136.4 84.8 153.3 118.2 83.8 239.9 132.1 240.7 219.4 86.9 275.7 183.6 321 183.6 218.5 8.1 178.7 78.1 134.7 7.3 0 239.5"/>
        <polygon class="cls-1" points="227.7 7.6 251 48.6 276.4 48.6 264 66.9 286.3 107 342.8 11.9 227.7 7.6"/>
        <polygon class="cls-1" points="231.8 121.6 254 159.8 232.3 200.8 278.5 201.7 301.7 240 163.8 240.9 231.8 121.6"/>
        <polygon class="cls-3" points="285 202.7 307.7 240.9 352.1 240.9 328 202.2 285 202.7"/>
      </g>
      <g class="cls-6">
        <text class="cls-5" transform="translate(419.8 237)"><tspan x="0" y="0">Moksud</tspan></text>
      </g>
      <g class="cls-6">
        <text class="cls-5" transform="translate(714.2 237)"><tspan x="0" y="0">And Zahur Contracting Ltd.</tspan></text>
      </g>
      <path class="cls-4" d="M443.1,155.9c-2.2,0-4.1-.4-5.8-1-1.7-.7-3.2-1.6-4.4-2.8-1.2-1.1-2.1-2.4-2.6-3.9-.7-1.6-1-3.2-1-4.9s.2-3.7.6-5.3c.5-1.6,1-3,1.7-4.3.8-1.2,1.6-2.4,2.6-3.4,1-1,2-1.7,3-2.4,1.1-.6,2.2-1.1,3.3-1.4,1.2-.4,2.3-.5,3.3-.5,1.7,0,3.4.4,5.1,1,1.7.8,3.2,1.8,4.6,3.2,1.4,1.4,2.5,3.2,3.3,5.4.8,2.1,1.2,4.7,1.2,7.6s-.3,3.2-1,4.7c-.6,1.5-1.5,2.8-2.6,4-1.2,1.2-2.6,2.1-4.3,2.8-1.7.7-3.5,1-5.5,1h-1.7,0ZM434.1,115.5c0-.5.1-1.2.4-1.7s.5-1,.9-1.4c.4-.4.9-.7,1.4-.9.5-.2,1.1-.4,1.7-.4s1.2.1,1.7.4,1,.5,1.4.9c.4.4.7.9.9,1.4s.4,1.1.4,1.7-.1,1.2-.4,1.7c-.2.5-.5,1-.9,1.4-.4.4-.9.7-1.4.9-.5.2-1.1.4-1.7.4s-1.2-.1-1.7-.4c-.5-.2-1-.5-1.4-.9-.4-.4-.7-.9-.9-1.4-.2-.5-.4-1.1-.4-1.7ZM437.5,142.2c0,2.1.5,3.7,1.7,4.7,1.1,1,2.6,1.6,4.6,1.6h.7c.9,0,1.7-.2,2.3-.5.7-.4,1.2-.8,1.7-1.4.5-.5.8-1.2,1-2,.3-.8.4-1.6.4-2.4,0-1.6-.2-3-.5-4.1-.4-1.2-.8-2.1-1.4-2.9-.5-.8-1.2-1.4-1.9-1.8-.7-.4-1.3-.6-2-.6s-1.6.2-2.3.5c-.8.4-1.4,1-2.1,1.8-.5.8-1.1,1.7-1.4,2.9-.4,1.2-.5,2.6-.5,4.2h0ZM444.3,115.5c0-.5.1-1.2.4-1.7s.5-1,.9-1.4c.4-.4.9-.7,1.4-.9.5-.2,1.1-.4,1.7-.4s1.2.1,1.7.4,1,.5,1.4.9c.4.4.7.9.9,1.4s.4,1.1.4,1.7-.1,1.2-.4,1.7c-.2.5-.5,1-.9,1.4-.4.4-.9.7-1.4.9-.5.2-1.1.4-1.7.4s-1.2-.1-1.7-.4c-.5-.2-1-.5-1.4-.9-.4-.4-.7-.9-.9-1.4-.2-.5-.4-1.1-.4-1.7ZM462.6,155.9v-7.4h13c1.3,0,2.4-.1,3.2-.3.9-.2,1.5-.5,1.9-.9.5-.4.8-.8,1-1.3.1-.5.2-1.1.2-1.7,0-1-.4-2.2-1-3.5-.7-1.3-1.5-2.6-2.6-3.9-1.1-1.3-2.3-2.6-3.7-3.8-1.3-1.3-2.7-2.5-4.1-3.6l6.4-6.2c4.4,3.7,7.8,7.2,10,10.6,2.3,3.5,3.5,6.7,3.5,9.8s-.3,3.2-.8,4.6c-.5,1.5-1.4,2.8-2.6,3.9-1.2,1.2-2.8,2-4.7,2.7-1.9.6-4.3,1-7.1,1h-12.8ZM502.6,163.4c1.9-.2,3.7-.5,5.5-1,1.7-.5,3.2-1.1,4.6-1.8,1.4-.7,2.5-1.4,3.5-2.3,1-.9,1.7-1.8,2.2-2.8-.9.2-1.8.4-2.7.4-1,0-1.8.1-2.4.1-2.8,0-5.2-.4-7.2-1.2-1.9-.8-3.6-1.9-4.8-3.2s-2.1-2.8-2.7-4.4-.8-3.2-.8-4.7c0-2.2.4-4.3,1.2-6.2s1.9-3.5,3.4-4.8c1.4-1.4,3.1-2.4,5.1-3.2s4-1.2,6.2-1.2,2.1,0,3.1.3c1.1.1,2.1.5,3.2,1,1,.4,2,1,3,1.9.9.8,1.7,1.8,2.5,3,.7,1.2,1.2,2.6,1.7,4.3s.6,3.6.6,5.8v5.7c0,3.8-.6,7.1-1.9,9.6-1.2,2.6-2.9,4.7-5.1,6.4s-4.8,2.9-7.9,3.7c-3.1.9-6.4,1.5-10.1,1.9l-.8-7.2h.8,0ZM514.2,148.9c.4,0,.8,0,1.2,0s.9-.1,1.3-.1c.4,0,.8-.2,1.2-.3.4,0,.7-.2.9-.3v-2.8c0-2.3-.2-4.2-.5-5.7-.4-1.4-.8-2.6-1.4-3.4s-1.2-1.4-2.1-1.7c-.8-.3-1.5-.4-2.3-.4s-1.7.2-2.5.5c-.8.4-1.4.8-2.1,1.5-.6.6-1.1,1.4-1.4,2.3-.4,1-.5,1.9-.5,3s.2,2.1.5,3c.4.9.9,1.7,1.5,2.3.7.7,1.6,1.2,2.6,1.5,1,.4,2.3.5,3.7.5h0ZM532.6,155.9v-7.4h13c1.3,0,2.4-.1,3.2-.3.9-.2,1.5-.5,1.9-.9.5-.4.8-.8,1-1.3.1-.5.2-1.1.2-1.7,0-1-.4-2.2-1-3.5-.7-1.3-1.5-2.6-2.6-3.9-1.1-1.3-2.3-2.6-3.7-3.8-1.3-1.3-2.7-2.5-4.1-3.6l6.4-6.2c4.4,3.7,7.8,7.2,10,10.6,2.3,3.5,3.5,6.7,3.5,9.8s-.1,2.1-.4,3.2c1.1.5,2.3,1,3.7,1.2,1.3.2,2.7.4,4.1.4h.3c.6,0,1.2,0,1.5.1s.6.2.8.4c.2.2.3.5.4.8v3.5c0,.6,0,1,0,1.4,0,.4-.2.6-.4.8-.2.1-.5.3-.8.4-.3,0-.8,0-1.3,0h-.4c-2.6,0-4.7-.4-6.4-1-1.8-.7-3.2-1.5-4.5-2.6-1.2,1.1-2.8,1.9-4.7,2.6-1.9.6-4.2,1-7,1h-12.8,0ZM573.2,128c1.6-.5,3.2-.8,4.8-1.2,1.6-.4,3.3-.5,5.3-.5s3.7.3,5.2.8c1.5.6,2.8,1.4,3.9,2.4,1.1,1,1.9,2.3,2.6,3.7.7,1.4,1.1,3,1.4,4.6.2,1.4.4,2.8.6,4,.2,1.3.5,2.4.8,3.4s.5,1.8,1,2.3c.4.6.8.9,1.4.9h3.1c.7,0,1.2,0,1.5.1s.6.2.8.4c.2.2.3.5.4.8,0,.4,0,.7,0,1.1v2.3c0,.6,0,1-.1,1.4,0,.4-.2.6-.4.8-.2.1-.5.3-.8.4-.3,0-.8,0-1.3,0h-35.1c-.5,0-1,0-1.3,0s-.6-.2-.8-.4c-.2-.2-.4-.5-.4-.8,0-.4,0-.8,0-1.4v-2.3c0-.4,0-.8,0-1.1,0-.3.1-.5.3-.8s.4-.4.8-.4.9-.1,1.5-.1h22.2c-.3-.6-.5-1.3-.8-2.1-.3-.8-.5-1.7-.6-2.5-.1-1.2-.4-2.6-.6-3.8-.3-1.2-.6-2.3-1.2-3.4-.5-1-1.2-1.8-2.1-2.4-.8-.7-1.9-1-3.4-1s-1,0-1.7,0c-.7,0-1.4.2-2.1.4-.8.1-1.6.3-2.3.5-.8.2-1.5.5-2.2.8v-7h0ZM626.7,156.3c-1.6,0-3-.1-4.3-.4s-2.3-.6-3.4-1c-1-.4-1.9-.9-2.6-1.4s-1.4-1.1-2-1.7c-2,2.8-4.9,4.2-8.7,4.2h-2.7c-.5,0-1,0-1.3,0s-.6-.2-.8-.4c-.2-.2-.4-.5-.4-.8,0-.4,0-.8,0-1.4v-2.3c0-.4,0-.8,0-1.1,0-.3.1-.5.3-.8s.4-.4.8-.4.9-.1,1.5-.1h1.7c1.1,0,2-.3,2.9-.9.8-.5,1.4-1.4,1.8-2.7,1.1-3.7,2.3-6.6,3.8-8.9,1.4-2.3,2.8-4,4.4-5.2,1.5-1.2,3-2.1,4.4-2.5,1.4-.4,2.8-.6,3.9-.6s3.2.2,4.6.6c1.4.5,2.6,1,3.7,1.8,1,.8,2,1.6,2.8,2.6.8,1,1.4,2,1.9,3.1.5,1.1,1,2.3,1.2,3.5.3,1.2.4,2.3.4,3.4s0,1.3-.1,2c0,.6-.2,1.2-.4,1.9,1.2.6,2.6,1.1,4,1.4,1.4.4,3,.5,4.6.5h.3c.6,0,1.1,0,1.5.1.4,0,.6.2.8.4.2.2.3.5.4.8v3.5c0,.6,0,1,0,1.4,0,.4-.2.6-.4.8-.2.1-.5.3-.8.4s-.8,0-1.3,0h-.4c-1.4,0-2.6,0-3.7-.3s-2.1-.5-3.1-.8c-.9-.4-1.7-.8-2.5-1.2-.8-.5-1.4-1-2.1-1.6-1.2,1.3-2.7,2.3-4.4,3.1s-3.7,1.2-6,1.2h0ZM632.4,142.6c0-.8-.1-1.7-.4-2.6-.4-.9-.8-1.7-1.3-2.5-.6-.8-1.3-1.4-2.2-2-.8-.5-1.9-.8-3-.8s-2.1.4-3,1c-.9.7-1.7,1.5-2.4,2.6-.8,1-1.4,2.3-1.9,3.7-.5,1.4-1,2.8-1.2,4.3.3.3.8.5,1.3.9.6.3,1.3.5,2.1.8s1.6.5,2.4.6c.8.2,1.6.3,2.3.3,1.1,0,2.1-.1,3-.4.9-.3,1.7-.6,2.3-1.1.6-.5,1.1-1.2,1.4-2,.4-.8.5-1.7.5-2.9h0ZM648.7,155.9c-.5,0-1,0-1.3,0s-.6-.2-.8-.4c-.2-.2-.4-.5-.4-.8,0-.4,0-.8,0-1.4v-3.5c0-.3.1-.5.4-.8.1-.2.4-.4.8-.4s.8-.1,1.5-.1h8v-41.2h8.8v48.6h-16.8ZM674.3,107.4h8.8v48.5h-8.8v-48.5ZM755.9,148.5v-20.3h8.8v27.7h-39c-2.7,0-5.1-.1-7-.5-2-.3-3.7-.8-5.2-1.3-1.4-.6-2.6-1.2-3.5-2.1-.9-.8-1.7-1.7-2.1-2.6-.5-1-.9-2-1.1-3.1-.3-1.1-.4-2.3-.4-3.5s0-1,0-1.6,0-1.2.2-1.9c0-.6.1-1.3.2-2,.1-.6.2-1.3.4-1.9l7.8.7c-.1.8-.3,1.7-.4,2.6-.1.8-.2,1.7-.2,2.6,0,1.3.2,2.4.5,3.4.4.9,1,1.7,2,2.2,1,.5,2.3,1,4.1,1.2,1.8.3,4.1.4,6.9.4h27.9ZM727.9,115.5c0-.5.1-1.2.4-1.7s.5-1,.9-1.4c.4-.4.9-.7,1.4-.9.5-.2,1.1-.4,1.7-.4s1.2.1,1.7.4,1,.5,1.4.9c.4.4.7.9.9,1.4s.4,1.1.4,1.7-.1,1.2-.4,1.7c-.2.5-.5,1-.9,1.4-.4.4-.9.7-1.4.9s-1.1.4-1.7.4-1.2-.1-1.7-.4c-.5-.2-1-.5-1.4-.9-.4-.4-.7-.9-.9-1.4-.2-.5-.4-1.1-.4-1.7ZM738.1,115.5c0-.5.1-1.2.4-1.7.2-.5.5-1,.9-1.4.4-.4.9-.7,1.4-.9.5-.2,1.1-.4,1.7-.4s1.2.1,1.7.4,1,.5,1.4.9c.4.4.7.9.9,1.4s.4,1.1.4,1.7-.1,1.2-.4,1.7c-.2.5-.5,1-.9,1.4-.4.4-.9.7-1.4.9s-1.1.4-1.7.4-1.2-.1-1.7-.4c-.5-.2-1-.5-1.4-.9-.4-.4-.7-.9-.9-1.4-.2-.5-.4-1.1-.4-1.7ZM814.9,107.3v48.6h-41.7v-7.4h15.2v-29.8h8.8v29.8h8.9v-41.2h8.8ZM828.3,163.4c1.9-.2,3.7-.5,5.5-1,1.7-.5,3.2-1.1,4.6-1.8,1.4-.7,2.5-1.4,3.5-2.3,1-.9,1.7-1.8,2.2-2.8-.9.2-1.8.4-2.7.4-1,0-1.8.1-2.4.1-2.8,0-5.2-.4-7.2-1.2-1.9-.8-3.6-1.9-4.8-3.2s-2.1-2.8-2.7-4.4-.8-3.2-.8-4.7c0-2.2.4-4.3,1.2-6.2s1.9-3.5,3.4-4.8c1.4-1.4,3.1-2.4,5.1-3.2s4-1.2,6.2-1.2,2.1,0,3.1.3c1.1.1,2.1.5,3.2,1,1,.4,2,1,3,1.9.9.8,1.7,1.8,2.5,3,.7,1.2,1.2,2.6,1.7,4.3s.6,3.6.6,5.8v5.7c0,3.8-.6,7.1-1.9,9.6-1.2,2.6-2.9,4.7-5.1,6.4s-4.8,2.9-7.9,3.7c-3.1.9-6.4,1.5-10.1,1.9l-.8-7.2h.8,0ZM839.8,148.9c.4,0,.8,0,1.2,0,.4,0,.9-.1,1.3-.1.4,0,.8-.2,1.2-.3.4,0,.7-.2.9-.3v-2.8c0-2.3-.2-4.2-.5-5.7-.4-1.4-.8-2.6-1.4-3.4-.6-.8-1.2-1.4-2.1-1.7-.8-.3-1.5-.4-2.3-.4s-1.7.2-2.5.5c-.8.4-1.4.8-2.1,1.5-.6.6-1.1,1.4-1.4,2.3-.4,1-.5,1.9-.5,3s.2,2.1.5,3c.4.9.9,1.7,1.5,2.3.7.7,1.6,1.2,2.6,1.5,1,.4,2.3.5,3.7.5h0ZM861.3,107.4h8.8v35.4c0,1.1,0,2.1.3,2.8.1.8.4,1.3.7,1.7.4.4.8.8,1.3.9.5.2,1,.3,1.7.3h1.7c.6,0,1.1,0,1.5.1.4,0,.6.2.8.4.2.2.3.5.3.8,0,.4,0,.7,0,1.1v2.3c0,.6,0,1,0,1.4,0,.4-.2.6-.4.8-.2.1-.5.3-.8.4-.4,0-.8,0-1.3,0h-3.8c-1.9,0-3.5-.3-4.8-.8-1.3-.5-2.4-1.3-3.3-2.3-.8-1-1.4-2.1-1.9-3.5s-.6-2.9-.6-4.6v-37.3h0ZM912.4,155.9c-2.6,0-5-.1-7.3-.3-2.3-.2-4.4-.5-6.1-.8-1.2.2-2.6.4-4.1.5-1.5.1-3.1.3-4.7.4-1.6,0-3.2.1-4.9.2-1.6,0-3.2,0-4.8,0h-4.6c-.5,0-1,0-1.3,0-.4,0-.7-.2-.9-.4-.2-.2-.4-.5-.5-.8,0-.4,0-.8,0-1.4v-2.3c0-.4,0-.8,0-1.1,0-.3.1-.5.4-.8.1-.2.4-.4.8-.4.4,0,.9-.1,1.5-.1h8.4c-.4-.6-.8-1.2-1.2-1.9-.4-.7-.6-1.3-.8-2-.2-.7-.4-1.3-.5-1.9-.1-.6-.2-1.2-.2-1.7,0-1.9.4-3.7,1.1-5.4.8-1.7,1.8-3.2,3.2-4.4,1.4-1.3,3.1-2.3,5.1-3.1s4.1-1.1,6.6-1.1,4.1.4,5.8,1c1.7.6,3,1.6,4.2,2.7,1.2,1.2,2,2.6,2.6,4.1.6,1.5.9,3.2.9,4.9s0,1.5-.2,2.3-.4,1.6-.5,2.3c-.2.8-.4,1.6-.7,2.3-.2.7-.5,1.3-.7,1.9h8.2c.6,0,1.2,0,1.5.1.4,0,.7.2.8.4.2.2.4.5.4.8,0,.4,0,.7,0,1.1v2.3c0,.6,0,1-.1,1.4,0,.4-.3.6-.5.8-.2.1-.5.3-.8.4s-.8,0-1.4,0h-4.7ZM886.7,115.5c0-.5.1-1.2.4-1.7s.5-1,.9-1.4c.4-.4.9-.7,1.4-.9.5-.2,1.1-.4,1.7-.4s1.2.1,1.7.4,1,.5,1.4.9c.4.4.7.9.9,1.4s.4,1.1.4,1.7-.1,1.2-.4,1.7c-.2.5-.5,1-.9,1.4-.4.4-.9.7-1.4.9s-1.1.4-1.7.4-1.2-.1-1.7-.4c-.5-.2-1-.5-1.4-.9-.4-.4-.7-.9-.9-1.4-.2-.5-.4-1.1-.4-1.7ZM890,140.2c0,1.3.2,2.4.7,3.5.5,1,1.1,1.9,1.9,2.6.8.8,1.7,1.3,2.8,1.7,1,.4,2.1.6,3.4.6h1.3c.2-.4.4-1,.7-1.5s.5-1.2.8-1.9c.2-.7.4-1.4.5-2.1.1-.8.2-1.4.2-2.2,0-1.1-.1-2.1-.5-3-.4-.9-.8-1.6-1.3-2.2s-1.2-1-1.9-1.4c-.7-.3-1.4-.4-2.1-.4s-1.6.1-2.3.4c-.8.2-1.4.6-2.1,1.2s-1.1,1.2-1.4,2c-.4.8-.5,1.8-.5,2.9h0ZM896.9,115.5c0-.5.1-1.2.4-1.7.2-.5.5-1,.9-1.4.4-.4.9-.7,1.4-.9.5-.2,1.1-.4,1.7-.4s1.2.1,1.7.4,1,.5,1.4.9c.4.4.7.9.9,1.4s.4,1.1.4,1.7-.1,1.2-.4,1.7c-.2.5-.5,1-.9,1.4-.4.4-.9.7-1.4.9s-1.1.4-1.7.4-1.2-.1-1.7-.4c-.5-.2-1-.5-1.4-.9-.4-.4-.7-.9-.9-1.4-.2-.5-.4-1.1-.4-1.7ZM940.8,156.3c-1.6,0-3-.1-4.3-.4-1.2-.3-2.3-.6-3.4-1-1-.4-1.9-.9-2.6-1.4s-1.4-1.1-2-1.7c-2,2.8-4.9,4.2-8.7,4.2h-2.7c-.5,0-1,0-1.3,0s-.6-.2-.8-.4c-.2-.2-.4-.5-.4-.8,0-.4,0-.8,0-1.4v-2.3c0-.4,0-.8,0-1.1,0-.3.1-.5.3-.8.1-.2.4-.4.8-.4s.9-.1,1.5-.1h1.7c1.1,0,2-.3,2.9-.9.8-.5,1.4-1.4,1.8-2.7,1.1-3.7,2.3-6.6,3.8-8.9,1.4-2.3,2.8-4,4.4-5.2,1.5-1.2,3-2.1,4.4-2.5,1.4-.4,2.8-.6,3.9-.6s3.2.2,4.6.6c1.4.5,2.6,1,3.7,1.8,1,.8,2,1.6,2.8,2.6.8,1,1.4,2,1.9,3.1.5,1.1,1,2.3,1.2,3.5.3,1.2.4,2.3.4,3.4s0,1.3-.1,2c0,.6-.2,1.2-.4,1.9,1.2.6,2.6,1.1,4,1.4,1.4.4,3,.5,4.6.5h.3c.6,0,1.1,0,1.5.1.4,0,.6.2.8.4.2.2.3.5.4.8v3.5c0,.6,0,1,0,1.4,0,.4-.2.6-.4.8-.2.1-.5.3-.8.4-.4,0-.8,0-1.3,0h-.4c-1.4,0-2.6,0-3.7-.3s-2.1-.5-3.1-.8c-.9-.4-1.7-.8-2.5-1.2-.8-.5-1.4-1-2.1-1.6-1.2,1.3-2.7,2.3-4.4,3.1s-3.7,1.2-6,1.2h0ZM946.5,142.6c0-.8-.1-1.7-.4-2.6-.4-.9-.8-1.7-1.3-2.5-.6-.8-1.3-1.4-2.2-2-.8-.5-1.9-.8-3-.8s-2.1.4-3,1c-.9.7-1.7,1.5-2.4,2.6-.8,1-1.4,2.3-1.9,3.7-.5,1.4-1,2.8-1.2,4.3.3.3.8.5,1.3.9.6.3,1.3.5,2.1.8.8.3,1.6.5,2.4.6.8.2,1.6.3,2.3.3,1.1,0,2.1-.1,3-.4.9-.3,1.7-.6,2.3-1.1.6-.5,1.1-1.2,1.4-2,.4-.8.5-1.7.5-2.9h0ZM979.5,144.8c0,.4,0,.8,0,1.2,0,.4,0,.8,0,1.1,1.1.5,2.3.8,3.6,1,1.2.2,2.6.4,3.9.4h.3c.6,0,1.1,0,1.4.1.4,0,.6.2.8.4.1.2.3.5.3.8,0,.4,0,.7,0,1.1v2.3c0,.6,0,1-.1,1.4,0,.4-.1.6-.4.8-.2.1-.5.3-.8.4s-.8,0-1.3,0h-.4c-2.3,0-4.2-.3-5.8-.8-1.6-.5-3-1.2-4.2-2-.8.8-1.7,1.5-2.9,2-1.2.5-2.6.8-4.4.8h-6.8c-.5,0-1,0-1.3,0s-.6-.2-.8-.4c-.2-.2-.4-.5-.4-.8,0-.4,0-.8,0-1.4v-3.5c0-.3.1-.5.4-.8.1-.2.4-.4.8-.4s.8-.1,1.5-.1h3.8c.8,0,1.4,0,1.9-.2.5-.2.9-.5,1.2-.8.4-.4.5-.9.8-1.5.1-.6.2-1.4.2-2.3v-36.3h8.8v37.5h0ZM986.9,155.9c-.5,0-1,0-1.3,0s-.6-.2-.8-.4c-.2-.2-.4-.5-.4-.8,0-.4,0-.8,0-1.4v-3.5c0-.3.1-.5.4-.8.1-.2.4-.4.8-.4s.8-.1,1.5-.1h8v-41.2h8.8v48.6h-16.8ZM1027.2,162.4c2-.4,3.6-.9,4.8-1.4,1.2-.6,2.1-1.3,2.8-2.2.7-.8,1.2-1.9,1.4-3s.4-2.6.4-4.1v-23.3h8.8v21.5c0,3.3-.3,6.1-1,8.4-.6,2.3-1.6,4.3-3,5.9-1.4,1.5-3.1,2.8-5.3,3.7-2.1.9-4.7,1.6-7.8,2.1l-1.1-7.5ZM1070.3,155.9c-3,0-5.7-.4-7.8-1.2-2.1-.8-3.8-1.9-5.1-3.2-1.3-1.3-2.2-2.8-2.8-4.4-.6-1.6-.9-3.2-.9-4.7s.4-4,1.1-5.9c.8-1.8,1.9-3.5,3.2-4.8,1.4-1.4,3-2.6,5.1-3.4,1.9-.8,4.1-1.2,6.6-1.2s2.1,0,3.1.3c1.1.1,2.1.5,3.2,1,1,.4,2.1,1,3,1.9.9.8,1.7,1.8,2.5,3,.7,1.2,1.2,2.6,1.7,4.3.4,1.7.6,3.6.6,5.8v5.3h6.1c.7,0,1.2,0,1.5.1s.6.2.8.4c.2.2.3.5.4.8,0,.4,0,.7,0,1.1v2.3c0,.6,0,1-.1,1.4,0,.4-.2.6-.4.8-.2.1-.5.3-.8.4-.4,0-.8,0-1.4,0h-6.6c-.8,2.1-2,4.1-3.5,5.7-1.6,1.7-3.5,3.2-5.6,4.4-2.1,1.2-4.5,2.2-7.1,3-2.6.8-5.4,1.3-8.2,1.6l-.8-7.2c2.1-.1,4-.4,5.7-.9,1.7-.4,3.3-1,4.7-1.7,1.4-.7,2.6-1.4,3.6-2.3,1-.8,1.8-1.7,2.3-2.7h-4.1ZM1075,148.5v-3.2c0-2.3-.2-4.1-.5-5.6-.4-1.4-.8-2.6-1.4-3.5-.6-.8-1.2-1.4-2.1-1.7-.8-.3-1.5-.4-2.3-.4s-1.7.2-2.5.5c-.8.4-1.5.8-2.1,1.5-.5.6-1,1.4-1.4,2.3-.4,1-.5,1.9-.5,3,0,2.1.7,3.9,2,5.1s3.4,1.9,6.2,1.9h4.8,0ZM1089.5,155.9c-.5,0-1,0-1.3,0s-.6-.2-.8-.4c-.1-.2-.3-.5-.4-.8,0-.4-.1-.8-.1-1.4v-2.3c0-.4,0-.8,0-1.1,0-.3.1-.5.3-.8.2-.2.4-.4.8-.4.4,0,.9-.1,1.5-.1h7.1c.5-2.5,1.2-4.8,2.1-6.8.8-1.9,1.7-3.7,2.7-5.3,1-1.5,2-2.9,3-4,1.1-1.1,2.1-2.1,3.2-2.8,1-.8,2.1-1.2,3-1.7,1-.4,1.9-.5,2.8-.5,1.4,0,2.8.4,4.1,1.1,1.3.8,2.4,1.8,3.3,3,1,1.2,1.7,2.6,2.3,4.2s.8,3.1.8,4.7-.3,2.9-.8,4.3c-.6,1.4-1.3,2.6-2.1,3.7h9.9c.6,0,1.1,0,1.4.1.4,0,.6.2.8.4.1.2.2.5.3.8,0,.4,0,.7,0,1.1v2.3c0,.6,0,1-.1,1.4,0,.4-.2.6-.4.8-.2.1-.5.3-.8.4-.4,0-.8,0-1.3,0h-10.7c.4.5.8,1.1,1.2,1.7s.8,1.2,1,1.9c.4.7.5,1.4.8,2.1s.3,1.5.3,2.3c0,1.9-.4,3.7-1.1,5.2-.7,1.4-1.7,2.8-2.8,3.7-1.2,1-2.4,1.9-3.8,2.3-1.4.5-2.7.8-3.9.8s-2-.1-3.1-.5c-1.1-.4-2.2-.9-3.4-1.6-1.1-.7-2.2-1.6-3.3-2.7s-2.1-2.3-2.9-3.9c-.9-1.5-1.7-3.2-2.2-5.1-.6-1.9-1-4.1-1.2-6.5h-6.3.1ZM1104.1,155.9c.1,2.1.5,3.9,1.1,5.5.6,1.7,1.3,3,2.1,4.1.8,1.1,1.7,1.9,2.6,2.5.9.6,1.7.9,2.6.9s.8-.1,1.2-.4c.4-.4.7-.8,1-1.2s.5-1.1.7-1.8c.1-.6.2-1.3.2-2.1s-.1-1.9-.4-2.8-.8-1.7-1.2-2.4c-.5-.7-1.2-1.2-2-1.7-.8-.4-1.6-.6-2.6-.6h-5.1,0ZM1116,141.9c0-.9,0-1.8-.4-2.6-.2-.8-.5-1.5-.8-2.2-.4-.6-.8-1.1-1.2-1.5-.5-.4-.9-.5-1.3-.5-.6,0-1.4.4-2.1,1-.8.8-1.5,1.7-2.3,2.9-.8,1.2-1.4,2.7-2.1,4.4s-1,3.4-1.3,5.3h4.9c1,0,1.9-.2,2.7-.5.8-.4,1.5-.8,2.1-1.4.5-.6,1-1.3,1.3-2.1.4-.8.5-1.7.5-2.6h0ZM1130.9,155.9c-.5,0-1,0-1.3,0s-.6-.2-.8-.4c-.2-.2-.4-.5-.4-.8,0-.4,0-.8,0-1.4v-2.3c0-.4,0-.8,0-1.1,0-.3.1-.5.3-.8.1-.2.4-.4.8-.4s.8-.1,1.5-.1h7.2c.4-.9.8-1.9,1.2-3s1-2.1,1.7-3.2v-34.9h8.8v23.9c1.9-1.7,4.1-3,6.4-4.1,2.3-1,4.8-1.5,7.7-1.5s4.8.4,6.7,1.3c1.9,1,3.5,2.1,4.8,3.7,1.2,1.6,2.1,3.5,2.8,5.6s.9,4.4.9,6.9v12.7h-48.2,0ZM1170.2,144c0-2.1-.2-3.8-.6-5.3-.4-1.4-1-2.6-1.7-3.4-.7-.8-1.6-1.4-2.6-1.8s-2.1-.5-3.1-.5c-1.5,0-3,.4-4.6,1.2-1.5.8-3,1.9-4.4,3.4-1.4,1.4-2.6,3-3.8,5-1.1,1.9-2.1,3.9-2.8,6h23.7v-4.6h0ZM1158.9,115.5c0-.5.1-1.2.4-1.7.2-.5.5-1,.9-1.4.4-.4.9-.7,1.4-.9.5-.2,1.1-.4,1.7-.4s1.2.1,1.7.4,1,.5,1.4.9c.4.4.7.9.9,1.4s.4,1.1.4,1.7-.1,1.2-.4,1.7c-.2.5-.5,1-.9,1.4-.4.4-.9.7-1.4.9s-1.1.4-1.7.4-1.2-.1-1.7-.4c-.5-.2-1-.5-1.4-.9-.4-.4-.7-.9-.9-1.4-.2-.5-.4-1.1-.4-1.7ZM1191.7,163.4c1.9-.2,3.7-.5,5.5-1,1.7-.5,3.2-1.1,4.6-1.8,1.4-.7,2.5-1.4,3.5-2.3,1-.9,1.7-1.8,2.2-2.8-.9.2-1.8.4-2.7.4-1,0-1.8.1-2.4.1-2.8,0-5.2-.4-7.2-1.2-1.9-.8-3.6-1.9-4.8-3.2s-2.1-2.8-2.7-4.4-.8-3.2-.8-4.7c0-2.2.4-4.3,1.2-6.2s1.9-3.5,3.4-4.8c1.4-1.4,3.1-2.4,5.1-3.2s4-1.2,6.2-1.2,2.1,0,3.1.3c1.1.1,2.1.5,3.2,1,1,.4,2,1,3,1.9.9.8,1.7,1.8,2.5,3,.7,1.2,1.2,2.6,1.7,4.3s.6,3.6.6,5.8v5.7c0,3.8-.6,7.1-1.9,9.6-1.2,2.6-2.9,4.7-5.1,6.4s-4.8,2.9-7.9,3.7c-3.1.9-6.4,1.5-10.1,1.9l-.8-7.2h.8,0ZM1203.3,148.9c.4,0,.8,0,1.2,0,.4,0,.9-.1,1.3-.1.4,0,.8-.2,1.2-.3.4,0,.7-.2.9-.3v-2.8c0-2.3-.2-4.2-.5-5.7-.4-1.4-.8-2.6-1.4-3.4-.6-.8-1.2-1.4-2.1-1.7-.8-.3-1.5-.4-2.3-.4s-1.7.2-2.5.5c-.8.4-1.4.8-2.1,1.5-.6.6-1.1,1.4-1.4,2.3-.4,1-.5,1.9-.5,3s.2,2.1.5,3c.4.9.9,1.7,1.5,2.3.7.7,1.6,1.2,2.6,1.5,1,.4,2.3.5,3.7.5h0ZM1240.9,155.9v-7.4h13c1.3,0,2.4-.1,3.2-.3.9-.2,1.5-.5,1.9-.9.5-.4.8-.8,1-1.3.1-.5.2-1.1.2-1.7,0-1-.4-2.2-1-3.5-.7-1.3-1.5-2.6-2.6-3.9-1.1-1.3-2.3-2.6-3.7-3.8-1.3-1.3-2.7-2.5-4.1-3.6l6.4-6.2c4.4,3.7,7.8,7.2,10,10.6,2.3,3.5,3.5,6.7,3.5,9.8s-.3,3.2-.8,4.6c-.5,1.5-1.4,2.8-2.6,3.9-1.2,1.2-2.8,2-4.7,2.7-1.9.6-4.3,1-7.1,1h-12.8ZM1292.5,155.9c-3,0-5.7-.4-7.8-1.2-2.1-.8-3.8-1.9-5.1-3.2-1.3-1.3-2.2-2.8-2.8-4.4-.6-1.6-.9-3.2-.9-4.7s.4-4,1.1-5.9c.8-1.8,1.9-3.5,3.2-4.8,1.4-1.4,3-2.6,5.1-3.4,1.9-.8,4.1-1.2,6.6-1.2s2.1,0,3.1.3c1.1.1,2.1.5,3.2,1,1,.4,2.1,1,3,1.9.9.8,1.7,1.8,2.5,3,.7,1.2,1.2,2.6,1.7,4.3.4,1.7.6,3.6.6,5.8v5.3h6.1c.7,0,1.2,0,1.5.1s.6.2.8.4c.2.2.3.5.4.8,0,.4,0,.7,0,1.1v2.3c0,.6,0,1-.1,1.4,0,.4-.2.6-.4.8-.2.1-.5.3-.8.4-.4,0-.8,0-1.4,0h-6.6c-.8,2.1-2,4.1-3.5,5.7-1.6,1.7-3.5,3.2-5.6,4.4-2.1,1.2-4.5,2.2-7.1,3-2.6.8-5.4,1.3-8.2,1.6l-.8-7.2c2.1-.1,4-.4,5.7-.9,1.7-.4,3.3-1,4.7-1.7,1.4-.7,2.6-1.4,3.6-2.3,1-.8,1.8-1.7,2.3-2.7h-4.1ZM1297.2,148.5v-3.2c0-2.3-.2-4.1-.5-5.6-.4-1.4-.8-2.6-1.4-3.5-.6-.8-1.2-1.4-2.1-1.7-.8-.3-1.5-.4-2.3-.4s-1.7.2-2.5.5c-.8.4-1.5.8-2.1,1.5-.5.6-1,1.4-1.4,2.3-.4,1-.5,1.9-.5,3,0,2.1.7,3.9,2,5.1s3.4,1.9,6.2,1.9h4.8,0ZM1327.4,144.8c0,.6,0,1.2,0,1.9,1.2.7,2.6,1.2,3.9,1.4,1.4.2,2.8.4,4.1.4.5-1.4,1.2-3,2.1-4.6.8-1.7,1.8-3.4,3-5.1,1.1-1.7,2.4-3.3,3.9-4.9s3-3,4.7-4.2c1.7-1.2,3.6-2.2,5.6-2.9,2-.8,4.1-1.1,6.4-1.1s4.9.4,6.8,1.3c1.9,1,3.5,2.1,4.8,3.7,1.2,1.6,2.2,3.5,2.8,5.6.6,2.1.9,4.4.9,6.9v5.3h6c.6,0,1.1,0,1.4.1.4,0,.7.2.8.4s.3.5.3.8c0,.4,0,.7,0,1.1v2.3c0,.6,0,1,0,1.4,0,.4-.2.6-.4.8-.2.1-.5.3-.8.4s-.8,0-1.3,0h-43.5c-3,0-5.7-.3-7.9-.8-2.3-.5-4.1-1.4-5.6-2.6-.8,1-1.8,1.9-3.1,2.5-1.2.6-2.8,1-4.8,1h-5.7c-.5,0-1,0-1.3,0s-.6-.2-.8-.4c-.2-.2-.4-.5-.4-.8,0-.4,0-.8,0-1.4v-3.5c0-.3.1-.5.4-.8.1-.2.4-.4.8-.4s.8-.1,1.5-.1h2.7c.8,0,1.4,0,1.9-.2.5-.2.9-.5,1.2-.8.4-.4.5-.9.8-1.5.1-.6.2-1.4.2-2.3v-8.7h8.8v9.8h0ZM1367.5,144c0-2.1-.2-3.8-.6-5.3-.4-1.4-1-2.6-1.7-3.4-.7-.8-1.6-1.4-2.6-1.8s-2.1-.5-3.2-.5-3,.4-4.6,1.2c-1.5.8-3,1.9-4.4,3.4-1.4,1.4-2.6,3-3.8,5-1.2,1.9-2.1,3.9-2.8,6h23.7v-4.6h0ZM1418.8,155.9c-2.6,0-5-.1-7.3-.3-2.3-.2-4.4-.5-6.1-.8-1.2.2-2.6.4-4.1.5-1.5.1-3.1.3-4.7.4-1.6,0-3.2.1-4.9.2-1.6,0-3.2,0-4.8,0h-4.6c-.5,0-1,0-1.3,0-.4,0-.7-.2-.9-.4-.2-.2-.4-.5-.5-.8,0-.4,0-.8,0-1.4v-2.3c0-.4,0-.8,0-1.1,0-.3.1-.5.4-.8.1-.2.4-.4.8-.4.4,0,.9-.1,1.5-.1h8.4c-.4-.6-.8-1.2-1.2-1.9s-.6-1.3-.8-2c-.2-.7-.4-1.3-.5-1.9-.1-.6-.2-1.2-.2-1.7,0-1.9.4-3.7,1.1-5.4.8-1.7,1.8-3.2,3.2-4.4,1.4-1.3,3.1-2.3,5.1-3.1s4.1-1.1,6.6-1.1,4.1.4,5.8,1c1.7.6,3,1.6,4.2,2.7,1.2,1.2,2,2.6,2.6,4.1.6,1.5.9,3.2.9,4.9s0,1.5-.2,2.3-.4,1.6-.5,2.3c-.2.8-.4,1.6-.7,2.3-.2.7-.5,1.3-.7,1.9h8.2c.6,0,1.2,0,1.5.1.4,0,.7.2.8.4.2.2.4.5.4.8,0,.4,0,.7,0,1.1v2.3c0,.6,0,1-.1,1.4,0,.4-.3.6-.5.8-.2.1-.5.3-.8.4s-.8,0-1.4,0h-4.7ZM1393,115.5c0-.5.1-1.2.4-1.7s.5-1,.9-1.4c.4-.4.9-.7,1.4-.9.5-.2,1.1-.4,1.7-.4s1.2.1,1.7.4,1,.5,1.4.9c.4.4.7.9.9,1.4s.4,1.1.4,1.7-.1,1.2-.4,1.7c-.2.5-.5,1-.9,1.4-.4.4-.9.7-1.4.9s-1.1.4-1.7.4-1.2-.1-1.7-.4c-.5-.2-1-.5-1.4-.9-.4-.4-.7-.9-.9-1.4-.2-.5-.4-1.1-.4-1.7ZM1396.3,140.2c0,1.3.2,2.4.7,3.5.5,1,1.1,1.9,1.9,2.6.8.8,1.7,1.3,2.8,1.7,1,.4,2.1.6,3.4.6h1.3c.2-.4.4-1,.7-1.5s.5-1.2.8-1.9c.2-.7.4-1.4.5-2.1.1-.8.2-1.4.2-2.2,0-1.1-.1-2.1-.5-3-.4-.9-.8-1.6-1.3-2.2s-1.2-1-1.9-1.4c-.7-.3-1.4-.4-2.1-.4s-1.6.1-2.3.4c-.8.2-1.4.6-2.1,1.2s-1.1,1.2-1.4,2c-.4.8-.5,1.8-.5,2.9h0ZM1403.2,115.5c0-.5.1-1.2.4-1.7.2-.5.5-1,.9-1.4.4-.4.9-.7,1.4-.9.5-.2,1.1-.4,1.7-.4s1.2.1,1.7.4,1,.5,1.4.9c.4.4.7.9.9,1.4s.4,1.1.4,1.7-.1,1.2-.4,1.7c-.2.5-.5,1-.9,1.4-.4.4-.9.7-1.4.9s-1.1.4-1.7.4-1.2-.1-1.7-.4c-.5-.2-1-.5-1.4-.9-.4-.4-.7-.9-.9-1.4-.2-.5-.4-1.1-.4-1.7ZM1447.1,156.3c-1.6,0-3-.1-4.3-.4-1.2-.3-2.3-.6-3.4-1-1-.4-1.9-.9-2.6-1.4s-1.4-1.1-2-1.7c-2,2.8-4.9,4.2-8.7,4.2h-2.7c-.5,0-1,0-1.3,0s-.6-.2-.8-.4c-.2-.2-.4-.5-.4-.8,0-.4,0-.8,0-1.4v-2.3c0-.4,0-.8,0-1.1,0-.3.1-.5.3-.8.1-.2.4-.4.8-.4s.9-.1,1.5-.1h1.7c1.1,0,2-.3,2.9-.9.8-.5,1.4-1.4,1.8-2.7,1.1-3.7,2.3-6.6,3.8-8.9,1.4-2.3,2.8-4,4.4-5.2,1.5-1.2,3-2.1,4.4-2.5s2.8-.6,3.9-.6,3.2.2,4.6.6c1.4.5,2.6,1,3.7,1.8,1,.8,2,1.6,2.8,2.6.8,1,1.4,2,1.9,3.1.5,1.1,1,2.3,1.2,3.5.3,1.2.4,2.3.4,3.4,0,1.8-.3,3.5-.9,5.1-.6,1.6-1.5,3-2.7,4.3-1.2,1.2-2.6,2.3-4.3,3-1.7.7-3.7,1.1-6,1.1h0ZM1452.8,142.6c0-.8-.1-1.7-.4-2.6-.4-.9-.8-1.7-1.3-2.5-.6-.8-1.3-1.4-2.2-2-.8-.5-1.9-.8-3-.8s-2.1.4-3,1c-.9.7-1.7,1.5-2.4,2.6-.8,1-1.4,2.3-1.9,3.7-.5,1.4-1,2.8-1.2,4.3.3.3.8.5,1.3.9.6.3,1.3.5,2.1.8.8.3,1.6.5,2.4.6.8.2,1.6.3,2.3.3,1.1,0,2.1-.1,3-.4.9-.3,1.7-.6,2.3-1.1.6-.5,1.1-1.2,1.4-2,.4-.8.5-1.7.5-2.9h0ZM1512.8,144.3c0,.8,0,1.5.1,2,0,.5.2,1,.5,1.3.2.4.5.5,1,.7.4.1,1,.2,1.7.2h2.4c.6,0,1.1,0,1.5.1.4,0,.6.2.8.4.2.2.3.5.3.8,0,.4,0,.7,0,1.1v2.3c0,.6,0,1,0,1.4,0,.4-.2.6-.4.8-.2.1-.5.3-.8.4s-.8,0-1.3,0h-3.9c-1.5,0-2.8-.1-3.9-.4-1.1-.3-2.1-.5-2.8-1-.8-.4-1.4-.8-1.9-1.4-.5-.5-.9-1.1-1.2-1.7-1.4.8-2.9,1.3-4.2,1.6-1.4.4-2.8.5-4.4.5s-3-.2-4.6-.6c-1.5-.4-3-1.1-4.2-1.9-1.2-.9-2.3-2-3.1-3.5-.8-1.4-1.2-3-1.2-5s.4-3.2,1-4.6c.6-1.4,1.6-2.6,2.7-3.7s2.4-2.1,3.9-2.9,3-1.6,4.6-2.3c1.5-.6,3.1-1.2,4.6-1.6,1.6-.5,3-.8,4.3-1.2v-3.8h8.8v21.8h0ZM1504,133.2c-1.9.4-3.7.9-5.2,1.4-1.6.5-2.9,1.2-4,1.9-1.1.7-1.9,1.5-2.6,2.4s-.9,1.9-.9,3,.2,1.6.5,2.2c.4.6.8,1.1,1.3,1.4.5.4,1.2.6,1.9.8.7.2,1.4.3,2.1.3,1.3,0,2.6-.2,3.7-.5,1.2-.4,2.2-.8,3.1-1.4v-11.5h0ZM1493.5,113.8c0-.5.1-1.2.4-1.7s.5-1,.9-1.4c.4-.4.9-.7,1.4-.9.5-.2,1.1-.4,1.7-.4s1.2.1,1.7.4,1,.5,1.4.9c.4.4.7.9.9,1.4s.4,1.1.4,1.7-.1,1.2-.4,1.7c-.2.5-.5,1-.9,1.4-.4.4-.9.7-1.4.9s-1.1.4-1.7.4-1.2-.1-1.7-.4c-.5-.2-1-.5-1.4-.9-.4-.4-.7-.9-.9-1.4-.2-.5-.4-1.1-.4-1.7ZM1503.6,113.8c0-.5.1-1.2.4-1.7.2-.5.5-1,.9-1.4.4-.4.9-.7,1.4-.9.5-.2,1.1-.4,1.7-.4s1.2.1,1.7.4,1,.5,1.4.9c.4.4.7.9.9,1.4s.4,1.1.4,1.7-.1,1.2-.4,1.7c-.2.5-.5,1-.9,1.4-.4.4-.9.7-1.4.9s-1.1.4-1.7.4-1.2-.1-1.7-.4c-.5-.2-1-.5-1.4-.9-.4-.4-.7-.9-.9-1.4-.2-.5-.4-1.1-.4-1.7ZM1518.2,155.9c-.5,0-1,0-1.3,0s-.6-.2-.8-.4c-.2-.2-.4-.5-.4-.8,0-.4,0-.8,0-1.4v-3.5c0-.3.1-.5.4-.8.1-.2.4-.4.8-.4s.8-.1,1.5-.1h10.3c1.3,0,2.4-.1,3.3-.3.9-.2,1.5-.5,2.1-.9.5-.4.8-.8,1-1.3.2-.5.3-1.2.3-1.8,0-1-.3-1.9-.9-2.9-.5-1-1.4-2-2.5-3-1.2-1-2.5-2.1-4.1-3.2-1.6-1.1-3.5-2.3-5.5-3.5l14.6-24.6,6.4,4.1-10.3,17.8c1.8,1.3,3.3,2.6,4.6,3.8,1.3,1.2,2.4,2.5,3.3,3.7.8,1.2,1.5,2.5,1.9,3.8.4,1.2.6,2.6.6,4.1s-.3,3.1-.8,4.5c-.5,1.4-1.4,2.6-2.5,3.7-1.2,1-2.6,1.9-4.4,2.5s-3.9.9-6.4.9h-11.1,0ZM1546.3,162.4c1.9-.4,3.5-.8,4.8-1.4,1.2-.5,2.1-1.3,2.8-2.1.7-.9,1.2-1.9,1.4-3.1.2-1.2.4-2.6.4-4.1v-23.2h8.8v20.3h6.8c.6,0,1.2,0,1.5.1s.6.2.8.4c.2.2.3.5.4.8v3.5c0,.6,0,1,0,1.4,0,.4-.2.6-.4.8-.2.1-.5.3-.8.4-.4,0-.8,0-1.3,0h-7.3c-.4,2.1-1,4-1.7,5.6-.8,1.6-1.9,2.9-3.3,4-1.3,1.1-2.9,2-4.8,2.7-1.9.7-4,1.2-6.6,1.7l-1.1-7.5h0ZM1598.1,148.5c.8,0,1.4,0,1.9-.2.5-.2.9-.5,1.2-.8.4-.4.5-.9.8-1.5.1-.6.2-1.4.2-2.3v-11.7h8.8v13.8c0,.3,0,.5,0,.8,1.2.6,2.5,1.1,3.9,1.4,1.4.4,3,.5,4.9.5h2.5v-20.3h8.8v27.7h-10.8c-2.4,0-4.6-.4-6.5-1-1.9-.6-3.5-1.4-4.8-2.4-.8,1-1.8,1.9-3,2.4-1.2.6-2.8,1-4.8,1h-1.4c-2.3,0-4.3-.4-6.1-1-1.8-.6-3.4-1.4-4.7-2.5-.8,1-1.8,1.9-3.1,2.5-1.2.6-2.8,1-4.8,1h-10c-.5,0-1,0-1.3,0s-.6-.2-.8-.4c-.2-.2-.4-.5-.4-.8,0-.4,0-.8,0-1.4v-3.5c0-.3.1-.5.4-.8.1-.2.4-.4.8-.4s.8-.1,1.5-.1h7c.8,0,1.4,0,1.9-.2.5-.2.9-.5,1.2-.8.4-.4.5-.9.8-1.5.1-.6.2-1.4.2-2.3v-8.7h8.8v10.7c0,.2,0,.5,0,.8,1.2.7,2.5,1.2,3.7,1.6,1.2.4,2.4.5,3.6.5h0ZM1596.5,115.5c0-.5.1-1.2.4-1.7.2-.5.5-1,.9-1.4.4-.4.9-.7,1.4-.9.5-.2,1.1-.4,1.7-.4s1.2.1,1.7.4,1,.5,1.4.9c.4.4.7.9.9,1.4s.4,1.1.4,1.7-.1,1.2-.4,1.7c-.2.5-.5,1-.9,1.4-.4.4-.9.7-1.4.9s-1.1.4-1.7.4-1.2-.1-1.7-.4c-.5-.2-1-.5-1.4-.9-.4-.4-.7-.9-.9-1.4-.2-.5-.4-1.1-.4-1.7ZM1601.7,106.4c0-.5.1-1.2.4-1.7s.5-1,.9-1.4c.4-.4.9-.7,1.4-.9.5-.2,1.1-.4,1.7-.4s1.2.1,1.7.4,1,.5,1.4.9c.4.4.7.9.9,1.4s.4,1.1.4,1.7-.1,1.2-.4,1.7c-.2.5-.5,1-.9,1.4-.4.4-.9.7-1.4.9s-1.1.4-1.7.4-1.2-.1-1.7-.4c-.5-.2-1-.5-1.4-.9-.4-.4-.7-.9-.9-1.4-.2-.5-.4-1.1-.4-1.7ZM1606.7,115.5c0-.5.1-1.2.4-1.7s.5-1,.9-1.4c.4-.4.9-.7,1.4-.9.5-.2,1.1-.4,1.7-.4s1.2.1,1.7.4,1,.5,1.4.9c.4.4.7.9.9,1.4s.4,1.1.4,1.7-.1,1.2-.4,1.7c-.2.5-.5,1-.9,1.4-.4.4-.9.7-1.4.9s-1.1.4-1.7.4-1.2-.1-1.7-.4c-.5-.2-1-.5-1.4-.9-.4-.4-.7-.9-.9-1.4-.2-.5-.4-1.1-.4-1.7Z"/>
    </g>
  </g>
</svg>